<?xml version="1.0" encoding="utf-8"?>
<!-- Generator: Adobe Illustrator 18.1.0, SVG Export Plug-In . SVG Version: 6.00 Build 0)  -->
<!DOCTYPE svg PUBLIC "-//W3C//DTD SVG 1.1//EN" "http://www.w3.org/Graphics/SVG/1.1/DTD/svg11.dtd">
<svg version="1.1" id="Layer_1" xmlns="http://www.w3.org/2000/svg" xmlns:xlink="http://www.w3.org/1999/xlink" x="0px" y="0px"
	 viewBox="0 0 589.8 124.1" enable-background="new 0 0 589.8 124.1" xml:space="preserve">
<path fill="#FFFFFF" d="M445.6,21.6c0,4.2-1.4,7.7-4.3,10.6c-2.9,2.9-6.4,4.3-10.6,4.3c-4.1,0-7.6-1.4-10.5-4.4
	c-2.9-2.9-4.3-6.4-4.3-10.6c0-4.1,1.4-7.6,4.3-10.5c2.9-2.9,6.4-4.3,10.5-4.3s7.7,1.4,10.6,4.3C444.2,14,445.6,17.5,445.6,21.6z"/>
<path fill="#FFFFFF" d="M409.3,21.6c0,4.2-1.4,7.7-4.3,10.6c-2.9,2.9-6.4,4.3-10.6,4.3c-4.1,0-7.6-1.4-10.5-4.4
	c-2.9-2.9-4.3-6.4-4.3-10.6c0-4.1,1.4-7.6,4.3-10.5c2.9-2.9,6.4-4.3,10.5-4.3c4.1,0,7.7,1.4,10.6,4.3
	C407.9,14,409.3,17.5,409.3,21.6z"/>
<path fill="#FFFFFF" d="M481,21.6c0,4.2-1.4,7.7-4.3,10.6c-2.9,2.9-6.4,4.3-10.6,4.3c-4.1,0-7.6-1.4-10.5-4.4
	c-2.9-2.9-4.3-6.4-4.3-10.6c0-4.1,1.4-7.6,4.3-10.5c2.9-2.9,6.4-4.3,10.5-4.3c4.1,0,7.7,1.4,10.6,4.3C479.6,14,481,17.5,481,21.6z"
	/>
<g>
	<g>
		<path fill="#FFFFFF" d="M54.6,68.4H36v53.2H9.5V68.4H0V46.6h9.5v-9.9c0-11,2.8-19.6,8.4-25.5C24.8,3.7,33.2,0,42.9,0
			c3.9,0,7.8,0.9,11.7,2.7v23c-3.6-2-6.7-3-9.3-3c-3.6,0-6.2,1.4-7.9,4.1c-1,1.6-1.4,5.4-1.4,11.6v8.1h18.6V68.4z"/>
		<path fill="#FFFFFF" d="M150.7,121.6h-26.6v-8.3c-2.5,3.2-5.1,5.5-7.7,6.9c-4.5,2.5-9.7,3.8-15.4,3.8c-9.3,0-17.6-3.2-24.9-9.6
			c-8.7-7.6-13-17.8-13-30.4c0-12.8,4.4-23,13.3-30.7c7-6.1,15.1-9.1,24.3-9.1c5.3,0,10.3,1.1,15,3.3c2.7,1.3,5.5,3.4,8.3,6.4v-7.4
			h26.6V121.6z M124.9,84.1c0-4.7-1.7-8.7-5-12c-3.3-3.3-7.3-4.9-12.1-4.9c-5.3,0-9.6,2-12.9,6c-2.7,3.2-4.1,6.9-4.1,11
			c0,4.1,1.4,7.8,4.1,11c3.3,4,7.6,6,12.9,6c4.8,0,8.8-1.6,12.1-4.9C123.3,92.9,124.9,88.9,124.9,84.1z"/>
		<path fill="#FFFFFF" d="M215.7,120c-5.5,2.7-11.3,4.1-17.3,4.1c-13.7,0-24.5-4.6-32.6-13.9c-6.5-7.5-9.7-16.2-9.7-26
			c0-9.9,3.2-18.6,9.7-26c8-9.3,18.9-13.9,32.6-13.9c6.1,0,11.9,1.4,17.3,4.2V71c-4.7-3.3-9.2-4.9-13.7-4.9c-5.3,0-9.6,1.7-13.1,5.1
			c-3.4,3.4-5.2,7.7-5.2,13c0,5.3,1.7,9.6,5.2,13c3.4,3.4,7.8,5.1,13.1,5.1c4.4,0,9-1.6,13.7-4.8V120z"/>
		<path fill="#FFFFFF" d="M281.1,68.4h-21.8v53.2h-26.6V68.4H224V46.6h8.7v-5.2l26.6-17.3v22.5h21.8V68.4z"/>
		<path fill="#FFFFFF" d="M407.3,121.6h-26.6v-37c0-6.5-0.7-10.9-2-13.2c-2-3.5-5-5.2-9-5.2c-4.4,0-7.8,1.9-10.2,5.7
			c-1.7,2.7-2.5,6.9-2.5,12.7v37h-26.6v-37c0-6.5-0.5-10.7-1.6-12.6c-2.2-3.9-5.5-5.8-9.9-5.8c-4.1,0-7.4,1.7-9.7,5
			c-0.9,1.2-1.5,2.8-1.9,4.9c-0.4,2.1-0.6,4.9-0.6,8.5v37h-26.6v-75h26.6v9.2c3.1-3,6-5.2,8.6-6.6c4.7-2.5,9.9-3.8,15.7-3.8
			c7.4,0,13.5,1.9,18.5,5.7c2.5,1.9,4.9,4.7,7.1,8.2c2.1-3.3,4.3-6,6.9-7.9c5.3-4.1,11.4-6.1,18.3-6.1c5.6,0,10.6,1.3,15,4
			c4.7,3,7.8,7,9.2,12c0.9,3.1,1.3,6.9,1.3,11.5V121.6z"/>
		<path fill="#FFFFFF" d="M444,121.6h-26.6v-75H444V121.6z"/>
		<path fill="#FFFFFF" d="M532.9,121.6h-26.6V83.7c0-6.6-0.8-11-2.2-13.2c-2.2-3.2-5.5-4.8-9.9-4.8c-4,0-7.4,1.4-10.1,4.1
			c-2.5,2.5-3.7,6.3-3.7,11.6v40.2h-26.6v-75h26.6v9.5c3.1-3.6,5.9-6.1,8.5-7.5c4.2-2.4,9.4-3.6,15.7-3.6c8.1,0,14.6,2.2,19.7,6.5
			c5.8,5,8.6,12.4,8.6,22.3V121.6z"/>
		<path fill="#FFFFFF" d="M589.8,68.4h-15.1v53.2h-26.6V68.4h-8.7V46.6h8.7V41l26.6-17v22.5h15.1V68.4z"/>
	</g>
</g>
</svg>
